<?xml version="1.0" encoding="UTF-8"?>
<!DOCTYPE svg PUBLIC "-//W3C//DTD SVG 1.1//EN" "http://www.w3.org/Graphics/SVG/1.1/DTD/svg11.dtd">
<svg xmlns="http://www.w3.org/2000/svg" xmlns:xlink="http://www.w3.org/1999/xlink">
    <symbol id="add" viewBox="0 0 16 16">
        <path fill="currentColor" d="M14.665 7.332h-6v-6H7.332v6h-6v1.333h6v6h1.333v-6h6V7.332z"/>
    </symbol>
    <symbol id="close" viewBox="0 0 12 12">
        <path d="M11.8046 1.13798L10.862 0.195312L5.99998 5.05733L1.13798 0.195312L0.195312 1.13798L5.05731 6L0.195312 10.862L1.13798 11.8047L5.99998 6.94267L10.862 11.8047L11.8046 10.862L6.94265 6L11.8046 1.13798Z"
        />
    </symbol>
    <symbol id="pencil" viewBox="0 0 13 13">
        <path d="M11.7239 2.05761L10.9427 1.27641C10.5675 0.901806 10.0589 0.691406 9.52867 0.691406C8.9984 0.691406 8.48987 0.901806 8.1146 1.27641L0 9.39093V13.0003H3.6094L11.7239 4.88575C12.0985 4.51049 12.3089 4.00191 12.3089 3.47168C12.3089 2.94144 12.0985 2.43287 11.7239 2.05761ZM3.05707 11.667H1.33333V9.94326L7.33333 3.94328L9.0572 5.66699L3.05707 11.667ZM10.7812 3.94295L10 4.72421L8.27613 3.00035L9.0574 2.21908C9.18267 2.09456 9.35207 2.02467 9.52867 2.02467C9.70527 2.02467 9.87467 2.09456 9.99993 2.21908L10.7813 3.00035C10.9058 3.12557 10.9757 3.29495 10.9757 3.47151C10.9757 3.64807 10.9058 3.81746 10.7813 3.94268L10.7812 3.94295Z" />
        />
    </symbol>
    <symbol id="delete" viewBox="0 0 28 28">
        <rect width="28" height="28" fill="#9D87F1" rx="14"/>
        <path fill="#fff"
              d="M20 9.335h-3.333V8a1.333 1.333 0 00-1.334-1.333h-2.666a1.333 1.333 0 00-1.334 1.333v1.334H8v1.333h1.273l.904 10h7.646l.904-10H20V9.335zM12.667 8h2.666v1.334h-2.666V8zm3.938 11.334h-5.21l-.783-8.667h6.776l-.783 8.667z"/>
    </symbol>
    <symbol id="disabled" viewBox="0 0 12 16">
        <path fill="currentColor"
              d="M9.333 6.001v-2a3.333 3.333 0 00-6.666 0v2H0v9.334h12V6H9.333zM4 4.001a2 2 0 114 0v2H4v-2zm6.667 10H1.333V7.335h9.334V14zm-4.667-2a.667.667 0 00.667-.666V10a.667.667 0 00-1.334 0v1.334A.667.667 0 006 12z"/>
    </symbol>

    <symbol id="down" viewBox="0 0 16 16">
        <path fill="currentColor" d="M8 12.154L1.968 6.12l.942-.943 5.092 5.09 5.091-5.09.943.943L8 12.154z"/>
    </symbol>
    <symbol id="forward" viewBox="0 0 24 24">
        <path fill="currentColor"
              d="M9.182 21.05l-1.414-1.414L15.404 12 7.768 4.362l1.414-1.414L18.232 12l-9.05 9.051z"/>
    </symbol>
    <symbol id="arrowBack" viewBox="0 0 16 14">
        <path fill="currentColor" d="M7.52867 1.81449L6.58601 0.871826L0.458008 6.99984L6.58601 13.1278L7.52867 12.1852L3.01001 7.66651H15.3333V6.33317H3.01001L7.52867 1.81449Z"
        />
    </symbol>
    <symbol id="info" viewBox="0 0 19 19">
        <path fill="currentColor"
              d="M9.887 7.242a.91.91 0 100-1.82.91.91 0 000 1.82zm-.388-5.66a7.917 7.917 0 100 15.833 7.917 7.917 0 000-15.833zm0 14.25a6.334 6.334 0 116.333-6.333 6.34 6.34 0 01-6.333 6.333zm.14-3.68l.52-2.18a1.414 1.414 0 00-1.677-1.71l-1.194.26.303 1.393 1.182-.274-.52 2.18a1.412 1.412 0 001.667 1.712l1.202-.253-.293-1.395-1.19.266z"/>
    </symbol>
    <symbol id="next" viewBox="0 0 16 12">
        <path stroke="#000" stroke-linecap="round" stroke-linejoin="round" stroke-width="1.5"
              d="M15.002 6H1M10 11.001L15.002 6M10 1l5.002 5"/>
    </symbol>
    <symbol id="select" viewBox="0 0 8 6">
        <path fill="#7E6CC1" d="M4 5.023L.229 1.253 1.17.31 4 3.138 6.829.31l.942.942L4 5.022z"/>
    </symbol>
    <symbol id="upload" viewBox="0 0 48 48">
        <path fill="#9D87F1"
              d="M22 10.828V32h4V10.828l6.586 6.586 2.828-2.828L24 3.172 12.586 14.586l2.828 2.828L22 10.828zM6 38v4h36v-4H6z"/>
    </symbol>
    <symbol id="wallet" viewBox="0 0 24 24">
        <path fill="currentColor"
              d="M18.998 4.002h-14a3 3 0 00-3 3v10a3 3 0 003 3h14a3 3 0 003-3v-10a3 3 0 00-3-3zm1 10.25h-3a2.25 2.25 0 010-4.5h3v4.5zm0-6.25h-3a4 4 0 100 8h3v1a1.001 1.001 0 01-1 1h-14a1.001 1.001 0 01-1-1v-10a1.001 1.001 0 011-1h14a1.001 1.001 0 011 1v1zm-4 4a1 1 0 102 0 1 1 0 00-2 0z"/>
    </symbol>
    <symbol id="searchClear" viewBox="0 0 18 19">
        <path d="M17.707 2.20697L16.293 0.792969L9.00003 8.086L1.70703 0.792969L0.29303 2.20697L7.58603 9.5L0.29303 16.793L1.70703 18.207L9.00003 10.914L16.293 18.207L17.707 16.793L10.414 9.5L17.707 2.20697Z"
        />
    </symbol>
</svg>