<svg width="19" height="18" viewBox="0 0 19 18" fill="none" xmlns="http://www.w3.org/2000/svg">
<path fillRule="evenodd" clipRule="evenodd" d="M14.0567 12.1712C16.3189 9.23019 16.1029 4.99631 13.4088 2.30217C10.4798 -0.626764 5.7311 -0.626764 2.80217 2.30217C-0.126764 5.2311 -0.126764 9.97984 2.80217 12.9088C5.4986 15.6052 9.73738 15.8192 12.6787 13.5509L16.9643 17.8365L18.3431 16.4576L14.0567 12.1712ZM12.0299 3.68103C14.1973 5.84844 14.1973 9.3625 12.0299 11.5299C9.8625 13.6973 6.34844 13.6973 4.18103 11.5299C2.01362 9.3625 2.01362 5.84844 4.18103 3.68103C6.34844 1.51362 9.8625 1.51362 12.0299 3.68103Z" fill="#9D87F1"/>
</svg>
